<?xml version="1.0" standalone="no"?>
<!DOCTYPE svg PUBLIC "-//W3C//DTD SVG 20010904//EN"
 "http://www.w3.org/TR/2001/REC-SVG-20010904/DTD/svg10.dtd">
<svg version="1.0" xmlns="http://www.w3.org/2000/svg"
 width="512.000000pt" height="512.000000pt" viewBox="0 0 512.000000 512.000000"
 preserveAspectRatio="xMidYMid meet">

<g transform="translate(0.000000,512.000000) scale(0.100000,-0.100000)"
fill="#000000" stroke="none">
<path d="M2522 4788 c-15 -7 -46 -58 -90 -145 -37 -73 -70 -133 -75 -133 -4 0
-61 27 -127 60 -138 69 -176 75 -210 33 -21 -26 -22 -35 -16 -143 19 -318 76
-549 266 -1070 110 -304 174 -503 167 -523 -5 -17 -86 135 -202 383 -282 599
-432 847 -639 1058 -127 128 -151 118 -222 -88 -27 -77 -53 -140 -58 -140 -5
0 -71 20 -147 45 -143 47 -167 48 -198 11 -21 -26 -14 -74 28 -201 23 -65 41
-124 41 -130 0 -6 -63 -32 -140 -59 -206 -72 -216 -96 -88 -221 209 -204 447
-347 1016 -611 206 -96 413 -203 437 -226 22 -21 -130 28 -700 227 -358 124
-583 176 -863 197 -147 11 -153 11 -180 -9 -47 -35 -42 -74 27 -212 34 -66 61
-124 61 -128 0 -5 -60 -38 -134 -75 -110 -56 -136 -73 -146 -98 -10 -24 -10
-36 0 -60 10 -25 36 -42 146 -98 74 -37 134 -70 134 -75 0 -4 -27 -61 -60
-127 -69 -138 -75 -176 -32 -210 25 -21 34 -22 142 -16 319 19 548 75 1066
264 308 112 507 176 527 169 17 -5 -135 -86 -382 -202 -602 -284 -848 -433
-1058 -639 -129 -127 -119 -150 87 -222 77 -27 140 -53 140 -59 0 -6 -18 -65
-41 -130 -42 -127 -49 -175 -28 -201 31 -37 55 -36 198 11 76 25 142 45 147
45 5 0 31 -63 58 -140 48 -140 67 -170 108 -170 34 0 64 23 140 109 203 226
330 441 584 987 95 207 203 415 226 439 16 17 0 -40 -79 -270 -41 -121 -112
-328 -157 -460 -123 -360 -167 -555 -188 -833 -11 -147 -11 -153 9 -180 35
-47 74 -42 212 27 66 34 124 61 128 61 5 0 38 -60 75 -134 56 -110 73 -136 98
-146 24 -10 36 -10 60 0 25 10 42 36 98 146 37 74 70 134 75 134 4 0 61 -27
127 -60 138 -69 176 -75 210 -32 21 25 22 34 16 142 -19 319 -78 556 -269
1080 -107 294 -171 493 -164 513 5 17 86 -135 202 -382 283 -601 432 -848 639
-1058 127 -129 151 -119 222 87 27 77 53 140 58 140 5 0 71 -20 147 -45 143
-47 167 -48 198 -11 21 26 14 74 -28 201 -23 65 -41 124 -41 130 0 5 63 32
140 59 140 48 170 67 170 108 0 34 -23 64 -109 140 -226 204 -456 339 -1006
593 -195 90 -397 194 -420 217 -17 16 40 0 270 -79 121 -41 328 -112 460 -157
360 -123 555 -167 833 -188 147 -11 153 -11 180 9 47 35 42 74 -27 212 -34 66
-61 124 -61 128 0 5 60 38 134 75 110 56 136 73 146 98 10 24 10 36 0 60 -10
25 -36 42 -146 98 -74 37 -134 70 -134 75 0 4 27 61 60 127 69 138 75 176 33
210 -26 21 -35 22 -143 16 -319 -19 -556 -78 -1080 -269 -294 -107 -493 -171
-513 -164 -18 6 141 88 457 237 528 249 779 403 984 604 128 127 118 151 -88
222 -77 27 -140 54 -140 59 0 6 18 65 41 130 42 127 49 175 28 201 -31 37 -55
36 -198 -11 -76 -25 -142 -45 -147 -45 -5 0 -31 63 -58 140 -50 146 -66 170
-116 170 -34 0 -171 -141 -271 -280 -143 -198 -241 -377 -449 -825 -95 -205
-199 -407 -222 -430 -16 -17 0 40 79 270 41 121 112 328 157 460 123 359 167
555 188 832 12 148 11 154 -8 180 -36 48 -74 43 -213 -26 -66 -34 -124 -61
-128 -61 -5 0 -38 60 -75 133 -78 154 -102 175 -166 145z m90 -351 c46 -90 72
-117 112 -117 7 0 59 23 115 50 56 28 106 50 111 50 9 0 6 -36 -16 -189 -33
-223 -97 -437 -297 -995 l-74 -209 -28 84 c-15 46 -67 192 -115 324 -107 293
-160 457 -194 595 -39 161 -72 390 -55 390 4 0 54 -22 110 -50 56 -27 108 -50
115 -50 40 0 66 27 112 117 26 51 49 93 52 93 3 0 26 -42 52 -93z m-913 -512
c100 -150 149 -238 269 -485 132 -271 262 -542 262 -545 0 -2 -28 12 -62 30
-35 19 -164 81 -288 138 -392 182 -558 270 -725 385 -101 70 -197 149 -188
155 5 2 52 19 105 36 162 54 171 70 118 226 -16 49 -28 90 -27 92 2 1 43 -11
92 -27 156 -53 172 -44 226 118 17 53 34 101 36 105 7 11 105 -112 182 -228z
m1942 121 c55 -162 68 -169 224 -116 49 16 90 28 92 27 1 -2 -11 -43 -27 -92
-53 -156 -44 -172 118 -226 53 -17 101 -34 105 -36 12 -7 -115 -107 -252 -198
-139 -91 -269 -163 -496 -272 -83 -39 -231 -110 -329 -157 -99 -47 -181 -86
-183 -86 -2 0 10 24 26 53 16 28 80 160 141 292 149 323 264 543 353 678 86
129 179 248 188 239 3 -4 21 -51 40 -106z m-2831 -1101 c36 -3 112 -15 170
-26 214 -42 352 -85 889 -277 l224 -79 -84 -28 c-46 -15 -192 -67 -324 -115
-293 -107 -457 -160 -595 -194 -161 -39 -390 -72 -390 -55 0 4 23 54 50 110
28 56 50 108 50 115 0 40 -27 66 -117 112 -51 26 -93 49 -93 52 0 3 42 26 93
52 90 46 117 72 117 112 0 7 -22 59 -50 115 -27 56 -50 107 -50 112 0 5 10 7
23 5 12 -3 51 -7 87 -11z m3610 6 c0 -6 -22 -56 -50 -112 -27 -56 -50 -108
-50 -115 0 -40 27 -66 117 -112 51 -26 93 -49 93 -52 0 -3 -42 -26 -93 -52
-90 -46 -117 -72 -117 -112 0 -7 23 -59 50 -115 28 -56 50 -106 50 -111 0 -9
-36 -6 -189 16 -223 33 -425 93 -980 291 l-224 80 84 28 c46 15 176 61 289
103 492 179 708 238 970 265 19 2 38 5 43 5 4 1 7 -2 7 -7z m-2225 -783 c-18
-35 -77 -156 -129 -269 -174 -380 -279 -577 -394 -744 -70 -101 -149 -197
-155 -188 -2 5 -19 52 -36 105 -54 162 -70 171 -226 118 -49 -16 -90 -28 -92
-27 -1 2 11 43 27 92 53 156 44 172 -118 226 -53 17 -101 34 -105 36 -10 6
109 103 213 173 158 105 261 162 528 291 147 71 321 156 387 189 66 32 123 59
127 59 4 1 -8 -27 -27 -61z m1030 -103 c322 -149 551 -268 689 -359 134 -89
251 -182 239 -189 -5 -2 -52 -19 -105 -36 -162 -54 -171 -70 -118 -226 16 -49
28 -90 27 -92 -2 -1 -43 11 -92 27 -156 53 -172 44 -226 -118 -17 -53 -34
-101 -36 -105 -11 -19 -198 239 -296 408 -43 74 -155 301 -341 689 -42 87 -76
161 -76 163 0 2 28 -12 63 -31 34 -19 157 -78 272 -131z m-634 -72 c17 -54 61
-177 97 -273 148 -401 217 -634 245 -830 23 -155 26 -190 17 -190 -5 0 -55 22
-111 50 -56 27 -108 50 -115 50 -40 0 -66 -27 -112 -117 -26 -51 -49 -93 -52
-93 -3 0 -26 42 -52 93 -46 90 -72 117 -112 117 -7 0 -59 -23 -115 -50 -56
-27 -106 -50 -111 -50 -9 0 -6 36 16 189 23 154 76 358 148 569 71 209 220
632 223 632 1 0 16 -44 34 -97z"/>
</g>
</svg>
